{
    "asset" : {
        "generator" : "Khronos glTF Blender I/O v3.2.43",
        "version" : "2.0"
    },
    "scene" : 0,
    "scenes" : [
        {
            "name" : "Scene",
            "nodes" : [
                0,
                1,
                2,
                3,
                4
            ]
        }
    ],
    "nodes" : [
        {
            "mesh" : 0,
            "name" : "deskBottomDrawer",
            "rotation" : [
                0.7071068286895752,
                0,
                0,
                0.7071067094802856
            ],
            "translation" : [
                -50.01084899902344,
                -3.858799457550049,
                10.811080932617188
            ]
        },
        {
            "mesh" : 1,
            "name" : "deskBox",
            "rotation" : [
                0.7071068286895752,
                0,
                0,
                0.7071067094802856
            ]
        },
        {
            "mesh" : 2,
            "name" : "deskDoor",
            "rotation" : [
                0.7071068286895752,
                0,
                0,
                0.7071067094802856
            ]
        },
        {
            "mesh" : 3,
            "name" : "deskMiddleDrawer",
            "rotation" : [
                0.7071068286895752,
                0,
                0,
                0.7071067094802856
            ],
            "translation" : [
                0,
                0,
                -26.19927978515625
            ]
        },
        {
            "mesh" : 4,
            "name" : "deskTopDrawer",
            "rotation" : [
                0.7071068286895752,
                0,
                0,
                0.7071067094802856
            ],
            "translation" : [
                0,
                0,
                -13.726228713989258
            ]
        }
    ],
    "animations" : [
        {
            "channels" : [
                {
                    "sampler" : 0,
                    "target" : {
                        "node" : 0,
                        "path" : "translation"
                    }
                },
                {
                    "sampler" : 1,
                    "target" : {
                        "node" : 0,
                        "path" : "rotation"
                    }
                },
                {
                    "sampler" : 2,
                    "target" : {
                        "node" : 0,
                        "path" : "scale"
                    }
                }
            ],
            "name" : "deskBottomDrawerAction",
            "samplers" : [
                {
                    "input" : 20,
                    "interpolation" : "LINEAR",
                    "output" : 21
                },
                {
                    "input" : 20,
                    "interpolation" : "LINEAR",
                    "output" : 22
                },
                {
                    "input" : 20,
                    "interpolation" : "LINEAR",
                    "output" : 23
                }
            ]
        },
        {
            "channels" : [
                {
                    "sampler" : 0,
                    "target" : {
                        "node" : 3,
                        "path" : "translation"
                    }
                }
            ],
            "name" : "deskMiddleDrawerAction",
            "samplers" : [
                {
                    "input" : 24,
                    "interpolation" : "LINEAR",
                    "output" : 25
                }
            ]
        },
        {
            "channels" : [
                {
                    "sampler" : 0,
                    "target" : {
                        "node" : 4,
                        "path" : "translation"
                    }
                }
            ],
            "name" : "deskTopDrawerAction",
            "samplers" : [
                {
                    "input" : 24,
                    "interpolation" : "LINEAR",
                    "output" : 26
                }
            ]
        }
    ],
    "materials" : [
        {
            "doubleSided" : true,
            "name" : "phong1SG.004",
            "pbrMetallicRoughness" : {
                "baseColorTexture" : {
                    "index" : 0
                },
                "metallicFactor" : 0,
                "roughnessFactor" : 0.870171070098877
            }
        },
        {
            "doubleSided" : true,
            "name" : "phong1SG.001",
            "pbrMetallicRoughness" : {
                "baseColorTexture" : {
                    "index" : 1
                },
                "metallicFactor" : 0,
                "roughnessFactor" : 0.870171070098877
            }
        },
        {
            "doubleSided" : true,
            "name" : "phong1SG.005",
            "pbrMetallicRoughness" : {
                "baseColorTexture" : {
                    "index" : 2
                },
                "metallicFactor" : 0,
                "roughnessFactor" : 0.870171070098877
            }
        },
        {
            "doubleSided" : true,
            "name" : "phong1SG.003",
            "pbrMetallicRoughness" : {
                "baseColorTexture" : {
                    "index" : 3
                },
                "metallicFactor" : 0,
                "roughnessFactor" : 0.870171070098877
            }
        },
        {
            "doubleSided" : true,
            "name" : "phong1SG.002",
            "pbrMetallicRoughness" : {
                "baseColorTexture" : {
                    "index" : 4
                },
                "metallicFactor" : 0,
                "roughnessFactor" : 0.870171070098877
            }
        }
    ],
    "meshes" : [
        {
            "name" : "deskBottomDrawer",
            "primitives" : [
                {
                    "attributes" : {
                        "POSITION" : 0,
                        "NORMAL" : 1,
                        "TEXCOORD_0" : 2
                    },
                    "indices" : 3,
                    "material" : 0
                }
            ]
        },
        {
            "name" : "deskBox",
            "primitives" : [
                {
                    "attributes" : {
                        "POSITION" : 4,
                        "NORMAL" : 5,
                        "TEXCOORD_0" : 6
                    },
                    "indices" : 7,
                    "material" : 1
                }
            ]
        },
        {
            "name" : "deskDoor",
            "primitives" : [
                {
                    "attributes" : {
                        "POSITION" : 8,
                        "NORMAL" : 9,
                        "TEXCOORD_0" : 10
                    },
                    "indices" : 11,
                    "material" : 2
                }
            ]
        },
        {
            "name" : "deskMiddleDrawer",
            "primitives" : [
                {
                    "attributes" : {
                        "POSITION" : 12,
                        "NORMAL" : 13,
                        "TEXCOORD_0" : 14
                    },
                    "indices" : 15,
                    "material" : 3
                }
            ]
        },
        {
            "name" : "deskTopDrawer",
            "primitives" : [
                {
                    "attributes" : {
                        "POSITION" : 16,
                        "NORMAL" : 17,
                        "TEXCOORD_0" : 18
                    },
                    "indices" : 19,
                    "material" : 4
                }
            ]
        }
    ],
    "textures" : [
        {
            "sampler" : 0,
            "source" : 0
        },
        {
            "sampler" : 0,
            "source" : 0
        },
        {
            "sampler" : 0,
            "source" : 0
        },
        {
            "sampler" : 0,
            "source" : 0
        },
        {
            "sampler" : 0,
            "source" : 0
        }
    ],
    "images" : [
        {
            "bufferView" : 4,
            "mimeType" : "image/jpeg",
            "name" : "Wood037_2K_ColorRed.jpg"
        }
    ],
    "accessors" : [
        {
            "bufferView" : 0,
            "componentType" : 5126,
            "count" : 104,
            "max" : [
                -7.937508583068848,
                51.864013671875,
                32.710018157958984
            ],
            "min" : [
                -61.3874397277832,
                -10.635261535644531,
                10.064215660095215
            ],
            "type" : "VEC3"
        },
        {
            "bufferView" : 1,
            "componentType" : 5126,
            "count" : 104,
            "type" : "VEC3"
        },
        {
            "bufferView" : 2,
            "componentType" : 5126,
            "count" : 104,
            "type" : "VEC2"
        },
        {
            "bufferView" : 3,
            "componentType" : 5123,
            "count" : 228,
            "type" : "SCALAR"
        },
        {
            "bufferView" : 5,
            "componentType" : 5126,
            "count" : 689,
            "max" : [
                60,
                28.500001907348633,
                36.79999923706055
            ],
            "min" : [
                -60.000003814697266,
                -28.500001907348633,
                -36.79999923706055
            ],
            "type" : "VEC3"
        },
        {
            "bufferView" : 6,
            "componentType" : 5126,
            "count" : 689,
            "type" : "VEC3"
        },
        {
            "bufferView" : 7,
            "componentType" : 5126,
            "count" : 689,
            "type" : "VEC2"
        },
        {
            "bufferView" : 8,
            "componentType" : 5123,
            "count" : 1728,
            "type" : "SCALAR"
        },
        {
            "bufferView" : 9,
            "componentType" : 5126,
            "count" : 152,
            "max" : [
                58.69313049316406,
                44.15843200683594,
                23.71405029296875
            ],
            "min" : [
                31.67583656311035,
                27.67801284790039,
                -34.76405715942383
            ],
            "type" : "VEC3"
        },
        {
            "bufferView" : 10,
            "componentType" : 5126,
            "count" : 152,
            "type" : "VEC3"
        },
        {
            "bufferView" : 11,
            "componentType" : 5126,
            "count" : 152,
            "type" : "VEC2"
        },
        {
            "bufferView" : 12,
            "componentType" : 5123,
            "count" : 360,
            "type" : "SCALAR"
        },
        {
            "bufferView" : 13,
            "componentType" : 5126,
            "count" : 104,
            "max" : [
                -27.860214233398438,
                54.72050094604492,
                -0.5184419751167297
            ],
            "min" : [
                -58.22177505493164,
                0.08680299669504166,
                -23.164260864257812
            ],
            "type" : "VEC3"
        },
        {
            "bufferView" : 14,
            "componentType" : 5126,
            "count" : 104,
            "type" : "VEC3"
        },
        {
            "bufferView" : 15,
            "componentType" : 5126,
            "count" : 104,
            "type" : "VEC2"
        },
        {
            "bufferView" : 16,
            "componentType" : 5123,
            "count" : 228,
            "type" : "SCALAR"
        },
        {
            "bufferView" : 17,
            "componentType" : 5126,
            "count" : 104,
            "max" : [
                -27.86021614074707,
                42.31684112548828,
                -24.96566390991211
            ],
            "min" : [
                -58.22177505493164,
                -12.316840171813965,
                -35.206180572509766
            ],
            "type" : "VEC3"
        },
        {
            "bufferView" : 18,
            "componentType" : 5126,
            "count" : 104,
            "type" : "VEC3"
        },
        {
            "bufferView" : 19,
            "componentType" : 5126,
            "count" : 104,
            "type" : "VEC2"
        },
        {
            "bufferView" : 20,
            "componentType" : 5123,
            "count" : 228,
            "type" : "SCALAR"
        },
        {
            "bufferView" : 21,
            "componentType" : 5126,
            "count" : 61,
            "max" : [
                2.5
            ],
            "min" : [
                0
            ],
            "type" : "SCALAR"
        },
        {
            "bufferView" : 22,
            "componentType" : 5126,
            "count" : 61,
            "type" : "VEC3"
        },
        {
            "bufferView" : 23,
            "componentType" : 5126,
            "count" : 61,
            "type" : "VEC4"
        },
        {
            "bufferView" : 24,
            "componentType" : 5126,
            "count" : 61,
            "type" : "VEC3"
        },
        {
            "bufferView" : 25,
            "componentType" : 5126,
            "count" : 60,
            "max" : [
                2.5
            ],
            "min" : [
                0.041666666666666664
            ],
            "type" : "SCALAR"
        },
        {
            "bufferView" : 26,
            "componentType" : 5126,
            "count" : 60,
            "type" : "VEC3"
        },
        {
            "bufferView" : 27,
            "componentType" : 5126,
            "count" : 60,
            "type" : "VEC3"
        }
    ],
    "bufferViews" : [
        {
            "buffer" : 0,
            "byteLength" : 1248,
            "byteOffset" : 0
        },
        {
            "buffer" : 0,
            "byteLength" : 1248,
            "byteOffset" : 1248
        },
        {
            "buffer" : 0,
            "byteLength" : 832,
            "byteOffset" : 2496
        },
        {
            "buffer" : 0,
            "byteLength" : 456,
            "byteOffset" : 3328
        },
        {
            "buffer" : 0,
            "byteLength" : 2118482,
            "byteOffset" : 3784
        },
        {
            "buffer" : 0,
            "byteLength" : 8268,
            "byteOffset" : 2122268
        },
        {
            "buffer" : 0,
            "byteLength" : 8268,
            "byteOffset" : 2130536
        },
        {
            "buffer" : 0,
            "byteLength" : 5512,
            "byteOffset" : 2138804
        },
        {
            "buffer" : 0,
            "byteLength" : 3456,
            "byteOffset" : 2144316
        },
        {
            "buffer" : 0,
            "byteLength" : 1824,
            "byteOffset" : 2147772
        },
        {
            "buffer" : 0,
            "byteLength" : 1824,
            "byteOffset" : 2149596
        },
        {
            "buffer" : 0,
            "byteLength" : 1216,
            "byteOffset" : 2151420
        },
        {
            "buffer" : 0,
            "byteLength" : 720,
            "byteOffset" : 2152636
        },
        {
            "buffer" : 0,
            "byteLength" : 1248,
            "byteOffset" : 2153356
        },
        {
            "buffer" : 0,
            "byteLength" : 1248,
            "byteOffset" : 2154604
        },
        {
            "buffer" : 0,
            "byteLength" : 832,
            "byteOffset" : 2155852
        },
        {
            "buffer" : 0,
            "byteLength" : 456,
            "byteOffset" : 2156684
        },
        {
            "buffer" : 0,
            "byteLength" : 1248,
            "byteOffset" : 2157140
        },
        {
            "buffer" : 0,
            "byteLength" : 1248,
            "byteOffset" : 2158388
        },
        {
            "buffer" : 0,
            "byteLength" : 832,
            "byteOffset" : 2159636
        },
        {
            "buffer" : 0,
            "byteLength" : 456,
            "byteOffset" : 2160468
        },
        {
            "buffer" : 0,
            "byteLength" : 244,
            "byteOffset" : 2160924
        },
        {
            "buffer" : 0,
            "byteLength" : 732,
            "byteOffset" : 2161168
        },
        {
            "buffer" : 0,
            "byteLength" : 976,
            "byteOffset" : 2161900
        },
        {
            "buffer" : 0,
            "byteLength" : 732,
            "byteOffset" : 2162876
        },
        {
            "buffer" : 0,
            "byteLength" : 240,
            "byteOffset" : 2163608
        },
        {
            "buffer" : 0,
            "byteLength" : 720,
            "byteOffset" : 2163848
        },
        {
            "buffer" : 0,
            "byteLength" : 720,
            "byteOffset" : 2164568
        }
    ],
    "samplers" : [
        {
            "magFilter" : 9729,
            "minFilter" : 9987
        }
    ],
    "buffers" : [
        {
            "byteLength" : 2165288,
            "uri" : "data:application/octet-stream;base64,"
        }
    ]
}
